<svg width="33" height="33" viewBox="0 0 33 33" fill="none" xmlns="http://www.w3.org/2000/svg">
<path d="M32.4811 16.6519C32.4811 25.4711 25.3317 32.6205 16.5125 32.6205C7.69328 32.6205 0.543884 25.4711 0.543884 16.6519C0.543884 7.83263 7.69328 0.683228 16.5125 0.683228C25.3317 0.683228 32.4811 7.83263 32.4811 16.6519Z" fill="#5D7DA1"/>
<path d="M8.29102 10.484V22.6713C8.29102 22.7443 8.31985 22.8142 8.37106 22.8653C8.42226 22.9163 8.4915 22.9442 8.56313 22.9426H17.5545L19.4014 25.3789C19.4518 25.4459 19.5299 25.4851 19.6127 25.4851C19.6955 25.4851 19.7736 25.4459 19.8241 25.3789L21.671 22.9426H24.4616C24.5332 22.9442 24.6025 22.9163 24.6537 22.8653C24.7049 22.8142 24.7337 22.7443 24.7337 22.6713V10.484C24.7309 10.4071 24.6969 10.3349 24.6398 10.2845C24.5827 10.2342 24.5077 10.2103 24.4326 10.2185H8.55734C8.41371 10.2215 8.2971 10.3377 8.29102 10.484ZM18.7124 19.7749H10.0858V17.2973H18.7124V19.7749ZM22.9157 15.3742H10.0858V12.8849H22.9042L22.9157 15.3742Z" fill="white"/>
</svg>
