<svg width="33" height="33" viewBox="0 0 33 33" fill="none" xmlns="http://www.w3.org/2000/svg">
<circle cx="16.399" cy="16.7146" r="15.9686" fill="#5D7DA1"/>
<path d="M16.2954 9.61085C16.3609 9.58007 16.4367 9.58007 16.5023 9.61085L27.0894 14.5833C27.276 14.6709 27.276 14.9362 27.0894 15.0238L16.5023 19.9962C16.4367 20.027 16.3609 20.027 16.2954 19.9962L5.70821 15.0238C5.52166 14.9362 5.52166 14.6709 5.70821 14.5833L16.2954 9.61085Z" fill="white"/>
<path fill-rule="evenodd" clip-rule="evenodd" d="M9.33513 18.1423C9.2025 18.08 9.05011 18.1767 9.05011 18.3233V22.7032C9.05011 22.704 9.05075 22.7046 9.05154 22.7046C9.05223 22.7046 9.0528 22.705 9.05293 22.7057C9.16103 23.2722 12.4086 24.723 16.3989 24.723C20.3894 24.723 23.637 23.2721 23.745 22.7056C23.7451 22.705 23.7457 22.7046 23.7463 22.7046C23.7471 22.7046 23.7477 22.704 23.7477 22.7032V22.6808L23.7477 22.6774L23.7477 22.674V18.3233C23.7477 18.1768 23.5953 18.08 23.4627 18.1423L16.4839 21.4199C16.4301 21.4452 16.3678 21.4452 16.3139 21.4199L9.33513 18.1423Z" fill="white"/>
<rect x="25.4515" y="14.8037" width="0.686572" height="5.17602" fill="white"/>
<circle cx="25.7949" cy="20.4597" r="0.703087" fill="white"/>
</svg>
