<svg width="33" height="33" viewBox="0 0 33 33" fill="none" xmlns="http://www.w3.org/2000/svg">
<path d="M32.0822 16.6832C32.0822 25.5198 24.9188 32.6832 16.0822 32.6832C7.24566 32.6832 0.0822144 25.5198 0.0822144 16.6832C0.0822144 7.84667 7.24566 0.683228 16.0822 0.683228C24.9188 0.683228 32.0822 7.84667 32.0822 16.6832Z" fill="#5D7DA1"/>
<path fill-rule="evenodd" clip-rule="evenodd" d="M18.1657 7.66113H19.279V11.7565H18.1657V7.66113ZM16.4164 7.66113H9.44436C9.18741 7.66113 9.01611 7.83298 9.01611 8.09076V25.2757C9.01611 25.5335 9.18741 25.7054 9.44436 25.7054H21.007C22.206 25.7054 23.1482 24.7602 23.1482 23.5573V9.80926C23.1482 8.63081 22.244 7.69974 21.0799 7.6623V18.7186C21.0799 18.9048 20.7634 19.1675 20.5779 19.1675H16.9039C16.7183 19.1675 16.4164 18.9048 16.4164 18.7186V7.66113ZM19.8728 16.2614L17.5719 17.6761V14.8466L19.8728 16.2614ZM17.5719 13.6553L19.8728 12.2405V15.1072L17.5719 13.6553Z" fill="white"/>
</svg>
