<svg width="33" height="33" viewBox="0 0 33 33" fill="none" xmlns="http://www.w3.org/2000/svg">
<path d="M32.4155 16.6832C32.4155 25.5198 25.2521 32.6832 16.4155 32.6832C7.57897 32.6832 0.415527 25.5198 0.415527 16.6832C0.415527 7.84667 7.57897 0.683228 16.4155 0.683228C25.2521 0.683228 32.4155 7.84667 32.4155 16.6832Z" fill="#5D7DA1"/>
<path fill-rule="evenodd" clip-rule="evenodd" d="M12.2229 11.0401C12.2229 8.83113 14.0144 7.04041 16.2244 7.04041C18.4343 7.04041 20.2259 8.83113 20.2259 11.0401C20.2259 13.2491 18.4343 15.0398 16.2244 15.0398C14.0144 15.0398 12.2229 13.2491 12.2229 11.0401Z" fill="white"/>
<path fill-rule="evenodd" clip-rule="evenodd" d="M14.152 11.3738C14.2947 11.6796 14.1623 12.0431 13.8563 12.1857C12.7791 12.6875 12.0963 13.4216 11.6813 14.0315C11.4737 14.3366 11.3345 14.6088 11.2484 14.8011C11.2055 14.8971 11.176 14.9726 11.158 15.0216C11.149 15.0461 11.1429 15.0639 11.1395 15.0743L11.1363 15.0841L11.1366 15.0831C11.0391 15.4059 10.6986 15.5884 10.3755 15.4912C10.0522 15.394 9.86903 15.0532 9.96629 14.7301L10.5516 14.9062C9.96629 14.7301 9.96629 14.7301 9.96629 14.7301L9.96662 14.729L9.96702 14.7277L9.968 14.7245L9.97074 14.7158L9.97941 14.6891C9.98665 14.6673 9.99686 14.6377 10.0103 14.601C10.0372 14.5276 10.0772 14.4259 10.1326 14.3021C10.2432 14.055 10.4162 13.7181 10.6705 13.3443C11.1795 12.5962 12.0199 11.6932 13.3398 11.0782C13.6458 10.9357 14.0094 11.068 14.152 11.3738Z" fill="white"/>
<path fill-rule="evenodd" clip-rule="evenodd" d="M6.86523 20.4046C6.86523 18.1956 8.65677 16.4049 10.8667 16.4049C13.0767 16.4049 14.8682 18.1956 14.8682 20.4046C14.8682 22.6135 13.0767 24.4043 10.8667 24.4043C8.65677 24.4043 6.86523 22.6135 6.86523 20.4046Z" fill="white"/>
<path fill-rule="evenodd" clip-rule="evenodd" d="M12.1917 22.0375C12.3865 21.762 12.7679 21.6964 13.0435 21.8912C14.0087 22.5729 14.983 22.802 15.7182 22.861C16.086 22.8905 16.3915 22.8772 16.6013 22.8572C16.7061 22.8472 16.7864 22.8356 16.8379 22.8271C16.8637 22.8228 16.8822 22.8194 16.893 22.8172L16.9032 22.8152C17.2317 22.7423 17.558 22.9484 17.6323 23.2768C17.7067 23.6059 17.5001 23.933 17.1709 24.0074L17.0361 23.4115C17.1709 24.0074 17.1709 24.0074 17.1709 24.0074L17.1698 24.0076L17.1685 24.0079L17.1652 24.0086L17.1563 24.0106L17.1288 24.0161C17.1064 24.0206 17.0756 24.0263 17.0371 24.0326C16.9602 24.0453 16.8521 24.0607 16.7173 24.0735C16.4482 24.0992 16.0703 24.115 15.6203 24.0789C14.7201 24.0067 13.5217 23.7251 12.3381 22.889C12.0624 22.6943 11.9968 22.3131 12.1917 22.0375Z" fill="white"/>
<path fill-rule="evenodd" clip-rule="evenodd" d="M17.9625 20.4046C17.9625 18.1956 19.754 16.4049 21.964 16.4049C24.1739 16.4049 25.9655 18.1956 25.9655 20.4046C25.9655 22.6135 24.1739 24.4043 21.964 24.4043C19.754 24.4043 17.9625 22.6135 17.9625 20.4046Z" fill="white"/>
<path d="M22.623 18.4395C22.2857 18.4259 22.0234 18.1416 22.037 17.8045C22.0846 16.6241 21.7473 15.6823 21.3971 15.0334C21.2219 14.7088 21.0446 14.4598 20.9137 14.2946C20.8483 14.2122 20.795 14.1511 20.7598 14.1125C20.7422 14.0932 20.7292 14.0795 20.7216 14.0717L20.7143 14.0642C20.4745 13.8283 20.4702 13.4424 20.7055 13.2016C20.9413 12.9603 21.3283 12.9557 21.5698 13.1914L21.5706 13.1922L21.5716 13.1932L21.5739 13.1955L21.5804 13.202L21.6 13.222C21.6159 13.2384 21.6374 13.2611 21.6637 13.2899C21.7162 13.3476 21.7879 13.4299 21.8719 13.536C22.0398 13.7478 22.2586 14.0562 22.4729 14.4533C22.9017 15.2478 23.3168 16.4063 23.2584 17.8537C23.2448 18.1909 22.9603 18.4531 22.623 18.4395Z" fill="white"/>
</svg>
